<?xml version="1.0" standalone="no"?>
<!DOCTYPE svg PUBLIC "-//W3C//DTD SVG 20010904//EN"
 "http://www.w3.org/TR/2001/REC-SVG-20010904/DTD/svg10.dtd">
<svg version="1.0" xmlns="http://www.w3.org/2000/svg"
 width="200.000000pt" height="200.000000pt" viewBox="0 0 200.000000 200.000000"
 preserveAspectRatio="xMidYMid meet">

<g transform="translate(0.000000,200.000000) scale(0.100000,-0.100000)"
fill="#6e6e6e" stroke="none">
<path d="M834 1866 c-73 -32 -105 -137 -65 -219 39 -80 28 -107 -51 -121 -76
-14 -98 -47 -141 -211 l-13 -49 -34 47 c-52 73 -112 76 -118 6 -2 -25 9 -58
37 -115 65 -129 107 -158 165 -113 32 25 90 19 82 -9 -2 -10 -10 -50 -16 -91
-10 -58 -10 -78 0 -97 10 -17 12 -107 8 -383 -5 -359 -5 -361 17 -381 27 -25
88 -27 113 -3 11 12 32 18 62 18 30 0 51 -6 63 -18 26 -26 88 -23 115 6 12 13
22 29 22 35 0 16 34 15 90 -1 52 -15 216 -15 231 0 13 13 -4 188 -32 332 -25
127 -75 296 -128 429 -36 91 -39 102 -30 148 20 99 17 94 52 94 55 0 71 19 64
75 -3 35 -1 56 11 73 14 22 14 28 -1 70 -10 26 -17 60 -17 75 0 44 -30 167
-55 222 -48 110 -114 154 -227 155 -50 0 -76 5 -100 20 -38 23 -61 24 -104 6z
m46 -76 c-6 -23 -9 -48 -6 -56 8 -21 36 -17 36 5 0 11 5 32 11 48 l11 28 19
-24 c35 -43 20 -141 -21 -141 -10 0 -21 -4 -25 -10 -3 -5 -12 -7 -20 -3 -9 3
-21 0 -28 -5 -27 -22 -68 36 -66 93 l2 40 6 -40 c4 -25 12 -41 22 -43 13 -2
17 8 21 52 4 49 32 115 44 103 3 -3 0 -24 -6 -47z m249 -4 c43 -23 87 -78 110
-140 22 -58 48 -193 39 -201 -3 -3 -36 9 -75 27 l-70 33 18 35 c11 21 19 55
19 85 0 86 -54 148 -130 148 -27 0 -40 4 -40 13 0 19 92 19 129 0z m-26 -87
c35 -38 38 -112 6 -153 -19 -25 -26 -27 -63 -21 -22 4 -49 11 -58 17 -24 12
-23 54 2 103 11 22 20 49 20 61 0 43 49 39 93 -7z m-173 -120 c0 -5 -24 -9
-52 -8 -45 0 -49 2 -29 10 14 5 30 8 38 5 7 -3 15 -1 18 5 7 11 25 3 25 -12z
m-95 -89 c28 -4 72 -4 100 1 40 7 67 5 128 -10 103 -27 242 -99 242 -126 0
-29 -66 -31 -167 -6 -110 28 -108 28 -108 -20 0 -32 -6 -47 -25 -65 -30 -28
-32 -47 -5 -74 11 -11 20 -32 20 -47 0 -16 7 -70 15 -122 9 -52 12 -98 7 -103
-4 -4 -34 -13 -66 -20 -57 -11 -59 -10 -77 13 l-19 24 -19 -24 c-18 -23 -20
-24 -77 -13 -32 7 -62 16 -66 20 -4 4 0 54 9 112 20 136 11 340 -16 340 -11 0
-22 -18 -35 -64 -36 -126 -86 -206 -120 -193 -16 6 -76 104 -76 123 0 18 31
26 46 13 8 -7 13 -23 12 -38 -4 -37 22 -33 45 7 11 18 29 72 41 120 30 117 38
129 94 146 56 17 53 17 117 6z m-354 -176 c10 -13 10 -17 -1 -24 -18 -11 -30
-3 -30 21 0 23 13 25 31 3z m799 -43 c5 -11 10 -29 10 -41 0 -20 -4 -20 -130
-18 -76 2 -131 7 -133 13 -1 6 40 14 96 19 89 8 98 11 94 28 -7 26 48 25 63
-1z m-580 -105 c0 -18 -16 -29 -30 -21 -13 8 -1 35 16 35 8 0 14 -6 14 -14z
m477 -47 c-4 -29 -8 -53 -10 -55 -2 -2 -25 2 -53 9 -48 12 -49 13 -52 55 l-3
42 62 0 62 0 -6 -51z m-30 -94 c15 -5 45 -73 94 -215 68 -196 113 -402 121
-555 l3 -60 -55 4 c-30 1 -56 4 -57 5 -1 0 -7 48 -13 106 -13 120 -26 180 -41
180 -18 0 -21 -29 -10 -97 5 -37 13 -97 17 -132 l6 -64 -28 7 c-16 4 -45 10
-65 13 l-36 5 -7 90 c-10 151 -7 576 5 583 6 5 8 31 3 76 l-7 70 29 -6 c16 -4
34 -8 41 -10z m-267 -170 c52 0 107 3 123 8 l27 7 0 -238 c0 -132 3 -273 6
-315 l7 -77 -40 0 -40 0 -7 128 c-4 70 -18 197 -32 283 -13 86 -24 159 -24
163 0 3 -8 6 -19 6 -16 0 -21 -20 -44 -167 -14 -93 -29 -223 -33 -291 l-6
-123 -37 3 c-30 3 -36 7 -35 26 0 12 1 153 2 312 l2 290 28 -7 c15 -5 70 -8
122 -8z m32 -515 c3 -144 2 -155 -16 -158 -17 -4 -18 1 -13 60 21 216 21 220
1 216 -13 -2 -21 -15 -25 -43 -6 -36 -6 -34 -8 19 -1 57 14 174 26 206 12 30
33 -148 35 -300z m-65 -62 c-2 -18 -4 -6 -4 27 0 33 2 48 4 33 2 -15 2 -42 0
-60z m-47 -90 c0 -26 -18 -40 -46 -36 -21 2 -30 9 -32 26 -3 20 1 22 37 22 26
0 41 -5 41 -12z m238 -10 c-2 -18 -11 -24 -34 -26 -27 -3 -32 1 -36 22 -5 24
-3 26 34 26 35 0 39 -2 36 -22z"/>
</g>
</svg>
