<?xml version="1.0" standalone="no"?>
<!DOCTYPE svg PUBLIC "-//W3C//DTD SVG 20010904//EN"
 "http://www.w3.org/TR/2001/REC-SVG-20010904/DTD/svg10.dtd">
<svg version="1.0" xmlns="http://www.w3.org/2000/svg"
 width="217.000000pt" height="218.000000pt" viewBox="0 0 217.000000 218.000000"
 preserveAspectRatio="xMidYMid meet">

<g transform="translate(0.000000,218.000000) scale(0.100000,-0.100000)"
fill="#000000" stroke="none">
<path d="M823 2158 c-4 -7 -22 -47 -39 -88 l-30 -75 -210 -62 c-241 -71 -282
-89 -319 -137 -56 -73 -54 -45 -55 -942 0 -633 3 -833 12 -842 9 -9 114 -12
412 -12 l400 0 46 45 46 45 44 -45 44 -45 402 0 c329 0 404 2 413 14 8 10 11
235 9 857 l-3 844 -28 47 c-45 77 -72 91 -322 166 l-229 68 -31 75 c-16 41
-34 80 -38 87 -6 9 -70 12 -262 12 -192 0 -256 -3 -262 -12z m376 -125 c-30
-38 -67 -85 -84 -106 l-30 -39 -22 29 c-13 15 -50 63 -83 106 l-61 77 166 0
167 0 -53 -67z m-261 -68 c40 -52 71 -95 69 -95 -2 0 -30 9 -63 20 -32 12 -68
18 -80 16 -15 -4 -24 1 -32 20 -7 14 -12 30 -12 37 0 18 32 97 39 97 4 0 40
-43 79 -95z m396 52 c19 -51 19 -58 4 -91 -8 -19 -17 -24 -32 -20 -12 2 -48
-4 -80 -16 -33 -11 -61 -20 -63 -20 -2 0 29 43 69 95 39 52 75 95 79 95 3 0
14 -19 23 -43z m-562 -124 c6 -16 10 -67 9 -114 -2 -79 0 -88 23 -116 14 -17
36 -33 48 -37 19 -4 33 -32 77 -151 30 -80 52 -147 50 -149 -2 -1 -62 60 -133
136 l-129 140 16 66 16 67 -45 78 c-25 43 -44 80 -42 82 8 6 65 23 81 24 10 1
22 -10 29 -26z m699 16 c19 -7 35 -13 37 -15 2 -1 -17 -38 -42 -81 l-45 -78
16 -66 16 -67 -129 -140 c-71 -77 -131 -138 -133 -136 -2 2 20 69 50 149 44
119 58 147 77 151 12 4 34 20 48 37 23 28 25 37 23 116 -2 89 11 141 34 141 8
0 29 -5 48 -11z m-835 -112 l40 -73 -17 -68 -17 -68 68 -76 c37 -43 129 -142
204 -222 l135 -145 1 -500 0 -499 -37 -38 -37 -38 -232 0 -232 0 4 37 c26 226
54 548 54 610 0 120 -60 816 -72 831 -6 6 -16 12 -23 12 -35 0 -35 -23 -5
-386 36 -434 36 -495 2 -834 l-27 -265 -103 -3 -102 -3 2 820 c3 810 3 820 24
847 11 15 31 36 45 46 25 19 228 86 264 87 15 0 31 -19 61 -72z m1084 38 c119
-36 150 -52 184 -99 21 -27 21 -37 24 -847 l2 -820 -102 3 -103 3 -27 265
c-34 339 -34 400 2 834 30 363 30 386 -5 386 -7 0 -17 -6 -23 -12 -12 -15 -72
-710 -72 -830 0 -63 39 -501 54 -616 l5 -32 -229 0 -228 0 -41 38 -41 38 0
498 0 498 163 175 c89 97 181 197 203 224 l42 48 -17 68 -17 67 40 73 c23 40
48 73 56 73 8 0 67 -16 130 -35z m-785 -11 l52 -17 -1 -44 c-1 -44 -1 -44 -52
-60 -75 -23 -84 -17 -84 61 0 58 5 71 29 75 2 1 28 -6 56 -15z m369 10 c12 -5
16 -21 16 -70 0 -78 -9 -84 -84 -61 -51 16 -51 16 -52 60 -1 44 0 45 45 60 56
18 56 18 75 11z m-190 -56 c8 -14 7 -21 -6 -34 -30 -30 -75 9 -48 42 16 18 39
15 54 -8z m74 -128 c32 -10 41 -17 37 -29 -4 -9 -34 -88 -66 -175 -33 -88 -64
-166 -68 -174 -6 -10 -16 6 -34 54 -95 249 -116 308 -114 310 1 0 22 8 47 16
53 17 138 16 198 -2z"/>
<path d="M651 392 c-6 -11 -6 -24 0 -35 9 -15 27 -17 129 -17 104 0 121 2 129
18 6 11 6 24 0 35 -9 15 -27 17 -129 17 -104 0 -121 -2 -129 -18z"/>
<path d="M1261 392 c-6 -11 -6 -24 0 -35 9 -15 27 -17 129 -17 104 0 121 2
129 18 6 11 6 24 0 35 -9 15 -27 17 -129 17 -104 0 -121 -2 -129 -18z"/>
</g>
</svg>
