<?xml version="1.0" standalone="no"?>
<!DOCTYPE svg PUBLIC "-//W3C//DTD SVG 20010904//EN"
 "http://www.w3.org/TR/2001/REC-SVG-20010904/DTD/svg10.dtd">
<svg version="1.0" xmlns="http://www.w3.org/2000/svg"
 width="512.000000pt" height="512.000000pt" viewBox="0 0 512.000000 512.000000"
 preserveAspectRatio="xMidYMid meet">

<g transform="translate(0.000000,512.000000) scale(0.100000,-0.100000)"
fill="#6e6e6e" stroke="none">
<path d="M2335 4391 c-43 -19 -69 -51 -89 -108 -11 -33 -17 -36 -117 -69 -417
-135 -750 -465 -889 -882 -47 -141 -61 -226 -67 -404 l-6 -166 -29 -6 -29 -6
3 -87 c3 -88 3 -88 30 -91 l28 -3 2 -927 3 -927 184 -3 c112 -1 188 1 194 7
14 14 12 955 -2 1176 -20 315 -56 537 -113 690 -48 130 -54 115 64 153 482
153 816 513 994 1070 3 10 10 9 34 -5 29 -17 31 -17 60 0 23 14 31 15 34 5 16
-56 96 -258 128 -321 159 -319 381 -545 669 -681 85 -41 250 -96 285 -96 20 0
17 -20 -9 -81 -49 -110 -87 -293 -112 -529 -20 -186 -36 -924 -27 -1185 l7
-200 190 0 190 0 5 925 5 924 25 6 c24 6 25 9 28 93 l3 87 -29 6 -29 6 -6 166
c-6 178 -20 263 -67 404 -103 308 -321 582 -597 749 -102 62 -171 93 -298 135
-95 31 -100 34 -112 69 -27 77 -88 125 -160 125 -37 0 -109 -36 -133 -67 l-20
-26 -20 26 c-25 32 -97 67 -136 67 -16 0 -47 -9 -69 -19z m135 -70 c14 -10 35
-36 48 -59 29 -52 56 -55 76 -9 16 40 65 83 105 92 58 13 121 -47 121 -115 0
-38 -37 -127 -78 -187 -41 -61 -164 -183 -184 -183 -6 0 -50 39 -97 88 -123
125 -178 244 -151 327 23 70 98 92 160 46z m-220 -153 c0 -22 59 -139 92 -182
17 -22 49 -59 70 -82 l39 -40 -36 -104 c-96 -274 -234 -494 -416 -663 -148
-138 -303 -229 -508 -298 -93 -31 -131 -39 -190 -39 l-74 0 6 163 c8 224 44
369 134 552 160 323 446 574 776 681 82 27 107 29 107 12z m716 -9 c542 -168
924 -696 924 -1280 l0 -119 -73 0 c-144 0 -380 87 -549 201 -242 165 -437 439
-557 783 l-42 119 39 41 c21 23 53 60 70 82 33 43 92 160 92 182 0 17 17 15
96 -9z m-1599 -1554 c52 -129 84 -291 114 -575 6 -58 13 -365 16 -682 l5 -578
-136 0 -136 0 0 918 c0 701 -3 921 -12 930 -7 7 -20 12 -30 12 -13 0 -18 8
-18 30 l0 31 83 -3 82 -3 32 -80z m2583 55 c0 -22 -5 -30 -18 -30 -10 0 -23
-5 -30 -12 -9 -9 -12 -229 -12 -930 l0 -918 -135 0 -135 0 0 473 c0 587 13
822 60 1093 21 120 49 219 85 301 l24 53 80 0 81 0 0 -30z"/>
<path d="M2079 3997 c-326 -144 -577 -430 -674 -771 -22 -78 -24 -92 -11 -104
22 -23 44 -7 56 40 82 331 313 614 619 760 58 27 113 53 121 57 8 5 15 17 15
27 0 31 -43 27 -126 -9z"/>
<path d="M2914 4016 c-7 -18 11 -46 30 -46 6 0 56 -22 111 -49 280 -135 498
-387 591 -681 14 -47 30 -95 35 -107 10 -26 31 -30 48 -9 27 32 -79 302 -176
448 -106 159 -308 331 -488 414 -95 44 -142 53 -151 30z"/>
<path d="M1952 2803 c-5 -10 -15 -79 -22 -153 -14 -156 -8 -182 55 -223 l35
-22 0 -87 0 -88 -52 0 c-65 0 -114 -27 -132 -73 -16 -38 -116 -722 -116 -789
0 -63 38 -102 116 -118 78 -16 142 -5 237 43 74 38 89 42 157 42 66 0 83 -4
143 -35 l67 -34 0 -163 0 -163 -77 0 c-126 0 -196 -48 -224 -152 -22 -82 -44
-78 421 -78 465 0 443 -4 421 78 -28 104 -98 152 -224 152 l-77 0 0 163 0 163
67 34 c60 31 77 35 143 35 68 0 83 -4 157 -42 95 -48 159 -59 237 -43 78 16
116 55 116 118 0 67 -100 751 -116 789 -18 46 -67 73 -131 73 l-53 0 0 88 0
87 38 20 c23 12 44 35 56 58 18 37 18 45 3 178 -9 76 -18 143 -22 149 -9 15
-190 13 -202 -2 -11 -14 -33 -192 -33 -268 0 -41 5 -55 31 -84 16 -19 39 -38
50 -41 17 -6 19 -16 19 -96 l0 -89 -64 0 -63 0 -12 58 c-30 154 -136 277 -268
312 -41 10 -43 12 -43 49 0 46 -22 70 -45 51 -9 -7 -15 -29 -15 -51 0 -37 -2
-39 -42 -49 -133 -35 -239 -158 -269 -312 l-12 -58 -58 0 -59 0 0 88 c1 87 1
87 33 107 18 11 41 37 51 56 19 35 19 43 7 175 -7 77 -18 145 -23 152 -7 8
-41 12 -104 12 -79 0 -95 -3 -102 -17z m167 -143 c15 -134 14 -143 -10 -169
-29 -31 -85 -26 -111 10 -19 25 -19 32 -7 143 l12 116 52 0 52 0 12 -100z
m1019 -20 c11 -108 11 -116 -6 -140 -26 -35 -83 -39 -113 -9 -20 20 -21 28
-15 107 3 48 9 104 13 125 l6 38 51 -3 51 -3 13 -115z m-470 -119 c79 -40 149
-133 167 -221 3 -19 9 -43 11 -52 5 -17 -13 -18 -286 -18 -273 0 -291 1 -286
18 2 9 8 33 11 52 15 73 68 155 126 196 84 58 175 67 257 25z m553 -380 c10
-13 19 -36 19 -51 0 -16 3 -35 6 -44 5 -14 -8 -16 -105 -16 -90 0 -113 -3
-117 -15 -14 -35 14 -45 127 -45 60 0 109 -4 109 -8 0 -5 18 -135 40 -288 22
-153 39 -292 38 -309 -4 -40 -44 -59 -126 -58 -55 0 -74 6 -145 44 -80 43 -84
44 -177 44 -92 0 -97 -1 -183 -44 -124 -62 -167 -61 -306 4 -101 47 -104 47
-184 43 -73 -4 -91 -9 -164 -47 -71 -38 -91 -44 -145 -44 -82 -1 -122 18 -126
58 -1 17 16 156 38 309 22 153 40 283 40 288 0 4 231 8 513 8 281 0 518 4 525
9 8 5 12 17 10 27 -3 18 -23 19 -522 22 -466 2 -517 4 -512 18 3 9 6 29 6 45
0 18 9 39 23 52 l22 22 639 0 638 0 19 -24z m-611 -1048 l0 -153 -50 0 -50 0
0 153 0 152 50 0 50 0 0 -152z m240 -228 c32 -16 70 -61 70 -81 0 -12 -62 -14
-360 -14 -285 0 -360 3 -360 13 0 21 30 57 64 78 28 17 53 19 294 19 213 0
268 -3 292 -15z"/>
</g>
</svg>
