<?xml version="1.0" standalone="no"?>
<!DOCTYPE svg PUBLIC "-//W3C//DTD SVG 20010904//EN"
 "http://www.w3.org/TR/2001/REC-SVG-20010904/DTD/svg10.dtd">
<svg version="1.0" xmlns="http://www.w3.org/2000/svg"
 width="512.000000pt" height="512.000000pt" viewBox="0 0 512.000000 512.000000"
 preserveAspectRatio="xMidYMid meet">

<g transform="translate(0.000000,512.000000) scale(0.100000,-0.100000)"
fill="#6e6e6e" stroke="none">
<path d="M2375 4771 c-42 -10 -49 -15 -293 -174 -276 -181 -260 -168 -283
-213 -18 -37 -23 -39 -87 -50 -182 -31 -324 -167 -352 -340 -6 -32 -8 -77 -5
-99 21 -159 100 -685 120 -797 35 -193 59 -265 103 -311 42 -43 170 -131 250
-172 48 -24 53 -29 48 -51 -22 -84 -48 -230 -53 -294 -7 -84 -1 -77 -130 -167
-244 -173 -497 -423 -641 -634 -51 -75 -120 -166 -153 -203 -122 -132 -295
-241 -488 -305 -141 -46 -151 -62 -105 -154 226 -447 560 -517 952 -200 l54
43 56 -51 c74 -66 203 -152 284 -188 103 -47 182 -64 293 -65 197 -1 374 84
549 262 l59 61 66 -58 c87 -77 172 -134 264 -176 281 -130 569 -65 832 186
l80 77 75 -55 c87 -65 210 -126 295 -148 124 -32 268 -10 365 54 101 68 210
201 284 348 50 100 34 121 -124 152 -214 43 -418 114 -634 223 l-109 55 -251
514 -250 514 -4 213 c-4 199 1 238 23 202 16 -25 92 -53 146 -53 136 0 244
118 225 248 -5 39 -360 743 -388 771 -7 7 -62 34 -123 59 -132 56 -268 126
-390 199 -101 60 -93 42 -80 186 6 75 6 75 -69 284 -82 229 -103 263 -180 290
-48 17 -188 28 -231 17z m201 -146 c23 -15 154 -370 154 -418 0 -76 -55 -236
-74 -216 -2 2 -27 78 -56 169 -28 91 -58 175 -67 188 -17 27 -126 82 -162 82
-13 0 -87 -33 -165 -73 l-141 -74 -74 27 -73 26 28 19 c16 11 126 82 244 158
l215 139 75 -7 c41 -4 84 -13 96 -20z m-84 -546 l63 -191 -40 -34 c-64 -54
-185 -119 -194 -105 -5 7 -13 72 -20 144 -18 196 -26 229 -68 272 -19 20 -33
38 -31 40 2 2 41 24 87 49 124 66 123 67 203 -175z m-565 117 c28 -7 75 -27
105 -43 48 -26 53 -31 52 -61 -1 -18 -18 -66 -38 -108 -51 -107 -137 -192
-249 -244 -46 -22 -90 -47 -97 -55 -11 -13 -11 -39 -1 -138 23 -249 9 -443
-40 -539 l-22 -43 -9 30 c-15 55 -57 308 -103 623 -50 340 -51 373 -4 448 29
48 104 111 152 128 54 19 187 20 254 2z m925 -304 c114 -70 240 -135 372 -193
l131 -57 93 -178 c51 -97 91 -178 89 -180 -2 -2 -44 26 -93 63 -69 52 -94 77
-112 114 -45 94 -147 120 -250 64 -53 -29 -194 -160 -312 -289 l-63 -70 -36
20 -36 19 2 289 2 289 73 74 c40 40 74 73 75 73 1 0 31 -17 65 -38z m-663
-176 c21 -192 21 -200 4 -217 -10 -9 -72 -36 -138 -59 -134 -48 -155 -61 -155
-100 0 -48 22 -65 79 -63 28 1 51 0 51 -4 0 -3 -11 -71 -24 -152 -25 -150 -40
-252 -51 -354 -6 -56 -8 -58 -31 -53 -27 7 -148 77 -190 111 l-27 22 26 34
c83 109 112 254 104 514 -3 99 -8 187 -11 195 -4 11 13 25 61 50 82 42 191
143 240 222 20 32 37 57 39 56 1 -2 12 -93 23 -202z m313 -228 l-7 -198 -65
39 c-36 21 -82 44 -102 52 -40 14 -47 29 -25 48 21 17 39 89 32 130 l-6 38 88
45 c48 24 89 44 90 44 0 -1 -2 -90 -5 -198z m706 -70 c33 -33 15 -73 -162
-361 -96 -155 -186 -291 -200 -302 -52 -38 -88 -28 -358 106 l-249 123 -35
-19 c-19 -10 -51 -36 -70 -58 l-36 -39 7 54 c4 29 19 123 34 208 l26 155 30
-3 c50 -6 129 -37 191 -77 123 -79 317 -185 337 -185 15 0 75 55 192 177 153
159 239 233 270 233 6 0 16 -5 23 -12z m309 -287 c195 -146 221 -183 172 -245
-26 -34 -62 -48 -96 -40 -20 5 -310 212 -356 254 -5 4 10 38 33 76 55 90 60
96 74 86 6 -5 84 -64 173 -131z m-283 -191 c36 -28 66 -52 67 -53 0 -1 4 -128
9 -282 l8 -280 190 -391 c104 -215 200 -410 212 -434 l22 -44 -28 19 c-16 10
-70 49 -121 87 -88 67 -94 74 -174 206 -159 264 -334 522 -500 739 l-78 101
44 22 c59 28 96 73 191 230 44 72 82 130 85 130 3 0 36 -23 73 -50z m-775
-209 l198 -100 70 -88 c186 -233 437 -599 588 -853 37 -63 77 -126 89 -139 65
-73 382 -285 573 -384 216 -111 370 -167 676 -245 l28 -7 -50 -76 c-67 -101
-154 -181 -228 -209 -48 -18 -73 -21 -141 -18 -76 4 -91 9 -185 56 -86 44
-146 89 -376 278 -295 243 -303 247 -344 192 -31 -42 -15 -63 140 -190 75 -62
151 -125 167 -141 l31 -27 -73 -70 c-185 -176 -393 -245 -586 -195 -84 22
-199 85 -291 159 -141 113 -128 82 -164 386 -30 253 -33 266 -57 288 -45 39
-111 -2 -100 -63 2 -16 17 -138 33 -269 l27 -239 -95 -91 c-106 -100 -175
-146 -274 -182 -125 -45 -247 -41 -384 14 -74 29 -213 119 -283 184 l-48 43
166 195 c91 107 169 205 174 218 19 45 -24 90 -76 80 -10 -2 -104 -105 -208
-229 -204 -241 -258 -294 -374 -370 -110 -72 -171 -93 -272 -93 -73 -1 -92 3
-135 26 -64 33 -135 104 -192 191 -25 38 -43 70 -41 71 1 1 32 13 68 26 253
89 469 266 642 525 158 237 401 468 740 701 l45 31 7 79 c8 96 20 169 48 294
20 93 21 95 79 148 32 30 81 85 110 123 29 38 59 69 66 69 7 0 103 -45 212
-99z"/>
</g>
</svg>
