<?xml version="1.0" standalone="no"?>
<!DOCTYPE svg PUBLIC "-//W3C//DTD SVG 20010904//EN"
 "http://www.w3.org/TR/2001/REC-SVG-20010904/DTD/svg10.dtd">
<svg version="1.0" xmlns="http://www.w3.org/2000/svg"
 width="329.000000pt" height="228.000000pt" viewBox="0 0 329.000000 228.000000"
 preserveAspectRatio="xMidYMid meet">

<g transform="translate(0.000000,228.000000) scale(0.100000,-0.100000)"
fill="#000000" stroke="none">
<path d="M1517 2174 c-4 -4 -7 -35 -7 -70 0 -60 -1 -63 -35 -83 -39 -23 -72
-71 -81 -118 -10 -51 15 -103 79 -171 33 -34 58 -64 56 -65 -2 -2 -30 -19 -62
-37 -192 -108 -408 -345 -510 -562 -83 -174 -134 -374 -143 -553 -5 -87 -3
-104 14 -131 20 -32 75 -64 110 -64 10 0 31 -9 45 -20 29 -23 304 -110 430
-137 114 -24 343 -24 457 1 47 10 171 46 275 81 105 35 209 67 233 71 56 9
103 41 124 84 15 31 16 48 7 140 -34 362 -171 661 -414 902 -82 83 -236 197
-284 213 -32 10 -26 26 33 84 89 88 95 177 15 253 -37 35 -38 39 -41 110 -3
65 -5 73 -23 73 -18 0 -20 -8 -23 -66 l-3 -66 -47 -12 c-61 -16 -69 -16 -117
2 -40 15 -40 15 -45 78 -4 47 -9 65 -20 67 -9 1 -19 0 -23 -4z m105 -214 c32
-24 51 -25 68 -5 37 45 131 20 157 -42 22 -53 10 -80 -74 -165 -48 -48 -74
-82 -70 -91 3 -8 44 -35 91 -60 111 -59 181 -114 287 -224 220 -229 342 -510
374 -865 7 -73 6 -78 -17 -101 -15 -15 -43 -28 -69 -32 -24 -4 -122 -34 -217
-67 -274 -93 -320 -102 -507 -102 -178 -1 -210 5 -430 70 -214 64 -201 53
-197 155 6 165 58 355 143 519 61 118 124 203 228 304 45 43 81 82 81 86 0 4
-7 13 -15 20 -20 17 -41 2 -139 -96 -173 -175 -294 -419 -341 -693 -8 -46 -15
-108 -15 -137 0 -49 -2 -54 -22 -54 -29 1 -55 20 -66 49 -10 27 2 170 23 276
55 272 172 492 365 686 109 110 181 164 288 218 41 21 62 37 62 49 0 10 -31
49 -70 87 -78 77 -95 109 -86 158 15 78 100 106 168 57z"/>
</g>
</svg>
