<svg xmlns="http://www.w3.org/2000/svg" xmlns:xlink="http://www.w3.org/1999/xlink" id="Capa_1" x="0px" y="0px" viewBox="0 0 100 100" style="enable-background:new 0 0 100 100;" xml:space="preserve"><g> <path fill="#6e6e6e" d="M47.7,53.1c0.2,0,0.4,0,0.6,0c1.3,0,2.6,0,3.9,0c1.4,0,2.4,0.6,2.9,1.9c0.2,0.4,0.2,0.8,0.2,1.2c0,2.4,0,4.8,0,7.1  c0,1.2-0.6,1.7-1.7,1.7c0,0,0,0,0,0c-1.3,0-1.3,0-1.3,1.3c0,9.1,0,18.3,0,27.4c0,1.7-0.6,3.1-2.1,4.1c-0.7,0.5-1.5,0.7-2.3,0.7  c-11.2,0-22.4,0-33.5,0c-2.6,0-4.5-2-4.5-4.6c0-9.4,0-18.8,0-28.1c0-0.7,0-0.7-0.7-0.7c-0.4,0-0.8,0-1.2-0.1  c-0.7-0.2-1.1-0.7-1.1-1.4c0-2.6,0-5.1,0-7.7c0-1.4,1.1-2.7,2.5-2.8c1.5-0.1,2.9-0.1,4.4-0.1c0.2,0,0.4,0,0.7,0  c-0.3-0.4-0.5-0.8-0.7-1.2c-0.6-1-0.9-2.1-0.9-3.3c0-2.6,0-5.1,0-7.7c0-1,0.7-1.6,1.7-1.5c4.4,0.2,8,1.9,10.9,5.2  c0.7,0.9,1.4,1.7,2.2,2.6c0.2,0.2,0.3,0.3,0.7,0.2c0.5-0.2,1-0.3,1.4-0.3c0.9,0,1.8,0,2.8,0c0.5,0,1,0.1,1.4,0.3  c0.3,0.1,0.5,0.1,0.7-0.2c1-1.2,1.9-2.4,3-3.5c2.1-2.2,4.6-3.6,7.6-4.1c0.8-0.1,1.7-0.2,2.5-0.3c1-0.1,1.6,0.5,1.6,1.5  c0,2.8,0,5.6-0.1,8.4c0,1.2-0.5,2.3-1.2,3.4c-0.1,0.1-0.1,0.2-0.2,0.3C47.7,53,47.7,53,47.7,53.1z M26.5,76c0-6.5,0-12.9,0-19.4  c0-0.4,0-0.6-0.5-0.6c-5.3,0-10.6,0-15.9,0c-0.4,0-0.6,0.2-0.6,0.6c0,1.7,0,3.4,0,5.1c0,0.7,0,0.7,0.6,0.7c3.7,0,7.5,0,11.2,0  c0.2,0,0.4,0,0.6,0c0.7,0.1,1.2,0.6,1.3,1.2c0.1,0.7-0.3,1.3-1,1.5c-0.3,0.1-0.6,0.1-0.9,0.1c-2.7,0-5.5,0-8.2,0  c-0.4,0-0.6,0.1-0.6,0.6c0,9.4,0,18.8,0,28.2c0,1.3,0.6,1.9,1.9,1.9c3.8,0,7.5,0,11.3,0c0.7,0,0.7,0,0.7-0.7  C26.5,88.8,26.5,82.4,26.5,76z M35.4,80.5c0,4.9,0,9.8,0,14.7c0,0.6,0,0.6,0.7,0.6c3.7,0,7.5,0,11.2,0c1.4,0,2-0.6,2-2  c0-9.3,0-18.7,0-28c0-0.6,0-0.6-0.6-0.6c-4.2,0-8.4,0-12.6,0c-0.7,0-0.7,0-0.7,0.6C35.4,70.7,35.4,75.6,35.4,80.5z M32.6,75.9  c0-3.2,0-6.4,0-9.6c0-3.2,0-6.4,0-9.6c0-0.7,0-0.7-0.7-0.7c-0.6,0-1.2,0-1.8,0c-0.7,0-0.7,0-0.7,0.8c0,12.8,0,25.6,0,38.3  c0,0.1,0,0.2,0,0.3c0,0.3,0.1,0.4,0.4,0.4c0.7,0,1.4,0,2.2,0c0.6,0,0.6,0,0.6-0.6C32.6,88.8,32.6,82.3,32.6,75.9z M43.9,62.3  c2.6,0,5.3,0,7.9,0c0.4,0,0.6-0.1,0.6-0.6c0-1.7,0-3.4,0-5.2c0-0.4-0.2-0.6-0.6-0.6c-5.3,0-10.6,0-15.8,0c-0.4,0-0.6,0.2-0.6,0.6  c0,1.7,0,3.4,0,5.1c0,0.6,0,0.6,0.6,0.6C38.7,62.3,41.3,62.3,43.9,62.3z M26,50.2c0,0,0.1-0.1,0.1-0.1c-0.1-0.1-0.2-0.3-0.3-0.4  c-0.8-1-1.7-2-2.5-3c-1.9-2.3-4.2-3.7-7.1-4.3c-0.4-0.1-0.6,0-0.6,0.4c0,1.7,0,3.5,0,5.2c0,0.5,0.1,1.1,0.2,1.6  c0.3,1.6,2,3.2,3.6,3.3c1.8,0.1,3.5,0.1,5.3,0.1c0.1,0,0.1-0.1,0.3-0.1c-0.2-0.1-0.4-0.2-0.5-0.3c-1.6-1-3.2-1.9-4.8-2.9  c-0.8-0.5-1-1.3-0.6-2c0.4-0.7,1.3-0.9,2.1-0.4c0.7,0.4,1.4,0.8,2.1,1.2C24.1,49.1,25,49.7,26,50.2z M37,53c0,0,0,0.1,0,0.1  c0.1,0,0.2,0.1,0.3,0.1c1.5,0,3,0.1,4.5,0c2.4-0.1,4.3-1.9,4.4-4.2c0.1-2,0-4.1,0.1-6.2c0-0.3-0.2-0.4-0.4-0.3  c-2.2,0.4-4.2,1.2-5.7,2.7c-1.5,1.5-2.8,3.2-4.2,4.8c0,0,0,0.1-0.1,0.3c0.3-0.2,0.5-0.3,0.7-0.4c1.4-0.9,2.9-1.7,4.3-2.6  c0.8-0.5,1.7-0.3,2.1,0.5c0.4,0.7,0.1,1.5-0.6,2c-0.9,0.5-1.8,1.1-2.7,1.6C38.7,51.9,37.8,52.4,37,53z M32.6,51.6  c0-0.4,0-0.8,0-1.2c0-0.3-0.1-0.4-0.4-0.4c-0.8,0-1.6,0-2.4,0c-0.3,0-0.4,0.1-0.4,0.4c0,0.8,0,1.6,0,2.3c0,0.3,0.1,0.4,0.4,0.4  c0.8,0,1.7,0,2.5,0c0.3,0,0.4-0.2,0.4-0.4C32.6,52.3,32.6,52,32.6,51.6z"></path> <path fill="#6e6e6e" d="M91.8,59.2c0.2,5.7,0.5,11.5,0.7,17.2c0.2,4.6,0.4,9.3,0.6,13.9c0.1,2.2,0.2,4.4,0.3,6.6c0,1.2-0.5,1.8-1.7,1.8  c-11.5,0-23,0-34.5,0c-1,0-1.8-0.7-1.7-1.6c0.1-0.7,0.6-1.2,1.3-1.2c0.2,0,0.4,0,0.7,0c10.8,0,21.6,0,32.3,0c0.7,0,0.7,0,0.7-0.7  c-0.1-2-0.2-4-0.3-6c-0.3-7.2-0.6-14.5-0.8-21.7c-0.2-4.6-0.4-9.2-0.6-13.8c-0.3-8.1-0.6-16.1-1-24.2c-0.1-2.2-0.2-4.3-0.3-6.5  c0-0.4-0.2-0.6-0.6-0.5c-4.3,0-8.6,0-12.8,0c-0.4,0-0.6,0.1-0.6,0.6c0,0.8,0,1.5,0,2.3c0,0.3,0.1,0.4,0.4,0.4c0.4,0,0.7,0,1.1,0  c0.9,0,1.5,0.6,1.5,1.4c0,0.8-0.6,1.4-1.5,1.4c-2,0-4,0-6,0c-0.9,0-1.5-0.6-1.5-1.4c0-0.8,0.6-1.4,1.5-1.4c0.3,0,0.7,0,1,0  c0.4,0,0.5-0.1,0.5-0.5c0-2.8,0-5.6,0-8.5c0-1.1,0-2.2-0.1-3.2c-0.3-2.8-1.7-5.1-3.9-6.9c-2.2-1.8-4.9-2.7-7.7-2.4  c-4,0.4-6.9,2.5-8.7,6.1c-0.8,1.5-1.1,3.1-1.1,4.8c0,1.3,0,2.7,0,4c0,0.5,0.2,0.5,0.6,0.5c5.3,0,10.6,0,15.9,0c0.3,0,0.6,0,0.9,0.1  c0.6,0.2,1,0.8,0.9,1.5c-0.1,0.7-0.6,1.2-1.3,1.3c-0.7,0-1.4,0-2.2,0c-4.7,0-9.4,0-14.1,0c-0.7,0-0.7,0-0.7,0.6c0,0.7,0,1.3,0,2  c0,0.6,0,0.6,0.6,0.6c0.3,0,0.7,0,1,0c0.8,0.1,1.4,0.7,1.4,1.4c0,0.8-0.6,1.4-1.4,1.4c-2,0-4,0-6.1,0c-0.9,0-1.4-0.6-1.4-1.4  c0-0.8,0.6-1.4,1.5-1.4c0.4,0,0.8,0,1.1,0c0.3,0,0.5-0.1,0.5-0.4c0-0.8,0-1.6,0-2.3c0-0.3-0.1-0.5-0.5-0.5c-4.3,0-8.7,0-13,0  c-0.4,0-0.5,0.2-0.5,0.5c-0.2,5-0.4,10-0.6,15c-0.1,1.4-0.1,2.8-0.2,4.3c0,0.6-0.3,1.1-0.8,1.4c-0.5,0.2-1,0.2-1.4-0.1  c-0.4-0.3-0.6-0.7-0.6-1.2c0-0.8,0-1.7,0.1-2.5c0.2-4.6,0.4-9.3,0.6-13.9c0.1-1.6,0.1-3.1,0.2-4.7c0-1.1,0.6-1.7,1.8-1.7  c4.8,0,9.6,0,14.4,0c0.6,0,0.6,0,0.6-0.7c0-1.7-0.1-3.5,0.1-5.2C46.9,8.7,49.5,5,54,2.7c2.3-1.2,4.8-1.6,7.3-1.3  c3.5,0.4,6.5,1.9,8.8,4.6c2.1,2.4,3.3,5.3,3.4,8.5c0.1,1.5,0,3,0,4.5c0,0.5,0.1,0.6,0.6,0.6c4.8,0,9.6,0,14.3,0  c1.3,0,1.8,0.5,1.9,1.8c0.2,5.9,0.5,11.7,0.7,17.6c0.2,5.5,0.4,11,0.6,16.6C91.7,56.8,91.8,58,91.8,59.2  C91.8,59.2,91.8,59.2,91.8,59.2z"></path></g></svg>