<svg xmlns="http://www.w3.org/2000/svg" xmlns:xlink="http://www.w3.org/1999/xlink" id="Capa_1" x="0px" y="0px" viewBox="0 0 100 100" style="enable-background:new 0 0 100 100;" xml:space="preserve"><g> <path fill="#641226" d="M50,100.8c-16,0-32.1,0-48.1,0c-0.6,0-1.2-0.1-1.6-0.7c-0.1-0.2-0.2-0.5-0.2-0.8c0-0.3,0-0.5,0-0.8c0-18.7,0-37.4,0-56.2  c0-1,0.3-1.6,1-2.2c2.3-1.9,4.5-3.8,6.8-5.7c0.3-0.2,0.4-0.4,0.2-0.8c-1.1-2.5-2.1-5-3.1-7.5c-0.5-1.2-0.2-1.9,1-2.4  c4.5-1.9,9-3.8,13.5-5.6c2.1-0.9,4.3-1.8,6.4-2.7c0.4-0.2,0.6-0.4,0.6-0.9c0-2.5,0-5,0-7.6c0-0.7,0.3-1.3,1-1.6  c0.2-0.1,0.5-0.1,0.8-0.1c4.5,0,9,0,13.5,0c0.4,0,0.7-0.1,1-0.4c2-1.7,4-3.4,6-5.1c1.1-1,1.6-0.9,2.8,0c2,1.7,4.1,3.5,6.1,5.2  c0.2,0.2,0.5,0.2,0.8,0.3c4.5,0,9,0,13.5,0c1.3,0,1.8,0.5,1.8,1.8c0,2.5,0,5,0,7.5c0,0.4,0.1,0.6,0.5,0.8  c5.4,2.2,10.8,4.5,16.2,6.7c1.3,0.5,2.6,1.1,3.9,1.6c1.1,0.5,1.4,1.2,0.9,2.3c-1,2.5-2.1,5-3.1,7.4c-0.2,0.4-0.1,0.6,0.2,0.9  c2.3,2,4.7,3.9,7,5.9c0.5,0.4,0.8,1,0.8,1.6c0,19,0,37.9,0,56.9c0,1.1-0.7,1.9-1.9,1.9C82.1,100.8,66,100.8,50,100.8z M94.2,97.7  c-0.2-0.2-0.3-0.3-0.4-0.4c-5.3-4.3-10.5-8.6-15.8-12.9c-5.3-4.3-10.6-8.6-15.9-12.9c-2.7-2.2-5.4-4.5-8.2-6.6  c-2.1-1.7-5.1-1.8-7.4-0.3c-1,0.7-1.9,1.5-2.9,2.2C37.1,72.2,30.5,77.6,23.8,83c-1.4,1.2-2.8,2.3-4.3,3.5c-0.5,0.4-1.1,0.5-1.8,0.2  c-0.5-0.3-0.9-0.9-0.7-1.5c0.2-0.5,0.5-0.9,0.9-1.2c5.1-4.2,10.3-8.4,15.4-12.6c0.6-0.5,1.1-0.9,1.7-1.4  C24.4,61.6,13.8,53.2,3.1,44.9c0,17.1,0,34.1,0,51.2c0.2-0.1,0.3-0.2,0.4-0.3c2-1.6,3.9-3.2,5.9-4.8c1.2-1,2.4-2,3.6-2.9  c0.5-0.4,1.1-0.5,1.7-0.2c0.5,0.3,0.8,0.8,0.7,1.4c0,0.5-0.3,0.9-0.7,1.2c-2.8,2.3-5.6,4.6-8.4,6.9c-0.1,0.1-0.2,0.2-0.4,0.4  C35.3,97.7,64.7,97.7,94.2,97.7z M64.7,44c0-7.2,0-14.4,0-21.7c0-0.4-0.1-0.7-0.5-0.9c-2.9-1.5-5-3.7-6.6-6.6  c-0.2-0.4-0.5-0.6-0.9-0.5c-4.4,0-8.7,0-13.1,0c-0.7,0-1,0.2-1.3,0.8c-1.5,2.7-3.7,4.8-6.4,6.3c-0.5,0.3-0.6,0.5-0.6,1  c0,14,0,28,0,42c0,1.3,0.2,2.3,1.4,2.9c0.1,0.1,0.2,0.2,0.3,0.3c0.3,0.3,0.6,0.3,1,0c2-1.6,3.9-3.2,5.9-4.8  c1.4-1.1,2.9-1.9,4.7-2.1c2.8-0.4,5.3,0.3,7.5,2.1c2,1.6,3.9,3.2,5.9,4.8c0.4,0.3,0.6,0.4,1,0c0.4-0.3,0.8-0.7,1.2-0.9  c0.5-0.3,0.6-0.7,0.6-1.2C64.7,58.4,64.7,51.2,64.7,44z M97,44.9c-10.8,8.4-21.4,16.7-32.1,25.1C75.6,78.7,86.2,87.3,97,96.1  C97,79,97,62,97,44.9z M67.7,63.8c0,0,0.1,0,0.1,0.1c0.8-0.6,1.6-1.2,2.4-1.8c0.4-0.3,0.5-0.6,0.5-1.1c0-17.3,0-34.5,0-51.8  c0-0.7,0-0.7-0.7-0.7c-13.3,0-26.6,0-39.9,0c-0.1,0-0.2,0-0.4,0c-0.3,0-0.4,0.1-0.4,0.4c0,0.2,0,0.4,0,0.6c0,17,0,33.9,0,50.9  c0,1,0.2,1.7,1.1,2.2c0.5,0.3,1,0.7,1.5,1.1c0.1,0.1,0.3,0.2,0.5,0.3c0-0.3,0-0.6,0-0.8c0-14,0-27.9,0-41.9c0-1,0.4-1.5,1.2-1.9  c3.1-1.4,5.3-3.7,6.7-6.8c0.4-0.8,0.9-1.1,1.8-1.1c5.3,0,10.6,0,15.9,0c0.9,0,1.4,0.4,1.8,1.2c1.4,3,3.6,5.3,6.6,6.7  c1,0.5,1.4,1.1,1.4,2.2c0,13.9,0,27.8,0,41.6C67.7,63.3,67.7,63.5,67.7,63.8z M75.4,57.8c0.2-0.1,0.3-0.1,0.4-0.2  c1.4-1.1,2.8-2.2,4.2-3.3c0.2-0.1,0.3-0.3,0.4-0.5c0.4-0.8,0.7-1.6,1-2.4c2.4-5.8,4.8-11.6,7.2-17.3c1.1-2.5,2.1-5.1,3.2-7.6  c0.1-0.3,0.1-0.5-0.2-0.5c-0.1,0-0.2-0.1-0.4-0.2c-3.7-1.5-7.4-3.1-11.1-4.6c-1.9-0.8-3.9-1.6-5.8-2.4c-0.5-0.2-0.6-0.1-0.6,0.4  c0,0.7,0,1.4,0,2.1c0,0.4,0.2,0.6,0.5,0.8c1.6,0.7,3.2,1.4,4.8,2c0.8,0.3,1.1,0.8,1.2,1.7c0.1,1.1,0.2,2.1,0.5,3.1  c0.6,2.3,1.7,4.2,3.3,5.9c0.5,0.5,0.6,1.2,0.3,1.8c-2.2,5.2-4.4,10.5-6.6,15.7C76.9,54.1,76.2,55.9,75.4,57.8z M24.4,57.8  c0,0,0.1-0.1,0.1-0.1c-0.4-1-0.8-2-1.2-3c-2.5-5.9-5-11.9-7.5-17.8c-0.4-1-0.3-1.7,0.4-2.4c2.3-2.5,3.4-5.5,3.5-8.8  c0-0.8,0.4-1.3,1.2-1.6c1.6-0.7,3.2-1.3,4.8-2c0.4-0.2,0.6-0.4,0.5-0.8c0-0.7,0-1.3,0-2c0-0.6-0.1-0.7-0.6-0.4  c-2.1,0.9-4.3,1.8-6.4,2.7c-3.6,1.5-7.1,3-10.7,4.4c-0.4,0.2-0.5,0.3-0.3,0.8c0.7,1.7,1.4,3.3,2.1,5c2.8,6.8,5.7,13.5,8.5,20.3  c0.9,2.2,0.9,2.2,2.8,3.7C22.6,56.3,23.5,57.1,24.4,57.8z M73.7,53.9c0.1-0.2,0.2-0.3,0.3-0.5c2.3-5.5,4.6-11.1,7-16.6  c0.2-0.5,0.1-0.8-0.2-1.1c-1.9-2.5-3.1-5.3-3.4-8.4c-0.1-0.5-0.3-0.9-0.8-1c-0.4-0.1-0.8-0.3-1.2-0.5c-0.5-0.2-1.1-0.4-1.7-0.7  C73.7,34.7,73.7,44.2,73.7,53.9z M26.3,25.1c-0.3,0.1-0.4,0.1-0.6,0.2c-0.8,0.3-1.7,0.7-2.5,1.1c-0.4,0.1-0.5,0.4-0.5,0.7  c-0.1,0.7-0.2,1.4-0.3,2.1c-0.6,2.5-1.7,4.7-3.3,6.7c-0.2,0.3-0.2,0.5-0.1,0.8c0.4,1,0.9,2,1.3,3c1.9,4.6,3.8,9.1,5.7,13.7  c0.1,0.1,0.1,0.2,0.2,0.3c0,0,0.1,0,0.1,0C26.3,44.1,26.3,34.7,26.3,25.1z M85.1,50.1c0,0,0.1,0.1,0.1,0.1  c3.6-2.8,7.2-5.6,10.9-8.5c-1.9-1.6-3.7-3.1-5.6-4.7C88.7,41.5,86.9,45.8,85.1,50.1z M14.9,50.3c0-0.2,0-0.2,0-0.3  c-1.7-4.2-3.5-8.4-5.2-12.5C9.4,37,9.2,37.2,9,37.4c-1.5,1.3-3.1,2.6-4.6,3.9c-0.5,0.4-0.5,0.4,0,0.8c2.8,2.2,5.7,4.4,8.5,6.6  C13.5,49.2,14.1,49.7,14.9,50.3z M53,5.3c0-0.1,0-0.1,0-0.1c-0.9-0.8-1.8-1.6-2.7-2.3c-0.1-0.1-0.4,0-0.5,0.1  c-0.9,0.7-1.7,1.4-2.5,2.1c-0.1,0.1-0.1,0.1-0.2,0.3C49,5.3,51,5.3,53,5.3z"></path> <path fill="#641226" d="M50,38.4c5.5,0,10.1,4.5,10.1,10c0,5.6-4.5,10.1-10.1,10.1c-5.5,0-10.1-4.5-10.1-10C39.9,43,44.4,38.5,50,38.4z M49.9,55.6  c3.9,0.1,7.1-3.1,7.2-7c0.1-3.9-3.1-7.1-7.1-7.2c-3.9-0.1-7.1,3.1-7.2,7C42.8,52.3,46,55.5,49.9,55.6z"></path> <path fill="#641226" d="M50,35.2c-2.9,0-5.3-2.4-5.3-5.3c0-2.9,2.4-5.3,5.3-5.3c2.9,0,5.3,2.4,5.3,5.3C55.3,32.8,52.9,35.2,50,35.2z M50,32.2  c1.3,0,2.3-1,2.3-2.3c0-1.2-1.1-2.3-2.3-2.3c-1.3,0-2.3,1-2.3,2.3C47.7,31.2,48.7,32.2,50,32.2z"></path> <path fill="#641226" d="M33.8,10.3c1.5,0,2.6,1.1,2.6,2.6c0,1.4-1.2,2.6-2.6,2.6c-1.4,0-2.6-1.2-2.6-2.6C31.3,11.4,32.4,10.3,33.8,10.3z"></path> <path fill="#641226" d="M66.2,15.5c-1.4,0-2.6-1.2-2.6-2.6c0-1.4,1.1-2.6,2.6-2.6c1.4,0,2.6,1.2,2.6,2.6C68.8,14.3,67.6,15.5,66.2,15.5z"></path> <path fill="#641226" d="M86,26c1.4,0,2.6,1.2,2.6,2.6c0,1.4-1.2,2.6-2.6,2.6c-1.4,0-2.6-1.2-2.6-2.6C83.4,27.1,84.6,26,86,26z"></path> <path fill="#641226" d="M14,26c1.4,0,2.6,1.2,2.6,2.6c0,1.4-1.2,2.6-2.6,2.6c-1.4,0-2.6-1.2-2.6-2.6C11.4,27.1,12.6,26,14,26z"></path></g></svg>